<svg width="65" height="32" viewBox="0 0 65 32" fill="none" xmlns="http://www.w3.org/2000/svg">
<g clip-path="url(#clip0_62_21)">
<path d="M9.23005 11.9191C4.1331 11.9191 0 15.9617 0 21.0655C0 28.1175 9.25605 31.859 9.23005 31.8491C9.20503 31.8591 18.46 28.1176 18.46 21.0655C18.46 15.9647 14.3269 11.9191 9.23005 11.9191ZM9.23005 24.769C8.53883 24.7686 7.86324 24.5632 7.2887 24.1788C6.71416 23.7943 6.26646 23.2481 6.00222 22.6091C5.73797 21.9702 5.66904 21.2672 5.80414 20.589C5.93924 19.9109 6.27229 19.2881 6.76121 18.7993C7.25012 18.3104 7.87293 17.9776 8.55091 17.8429C9.22888 17.7081 9.93157 17.7775 10.5701 18.0422C11.2087 18.307 11.7545 18.7551 12.1384 19.3301C12.5224 19.9051 12.7273 20.5811 12.7273 21.2725C12.7284 21.7324 12.6386 22.188 12.4633 22.6132C12.288 23.0384 12.0305 23.4247 11.7056 23.7501C11.3807 24.0755 10.9947 24.3335 10.5699 24.5094C10.1451 24.6853 9.6898 24.7755 9.23005 24.775V24.769Z" fill="#FF6F0F"/>
<path d="M9.23005 11.9191C4.1331 11.9191 0 15.9617 0 21.0655C0 28.1175 9.25605 31.859 9.23005 31.8491C9.20503 31.8591 18.46 28.1176 18.46 21.0655C18.46 15.9647 14.3269 11.9191 9.23005 11.9191ZM9.23005 24.769C8.53883 24.7686 7.86324 24.5632 7.2887 24.1788C6.71416 23.7943 6.26646 23.2481 6.00222 22.6091C5.73797 21.9702 5.66904 21.2672 5.80414 20.589C5.93924 19.9109 6.27229 19.2881 6.76121 18.7993C7.25012 18.3104 7.87293 17.9776 8.55091 17.8429C9.22888 17.7081 9.93157 17.7775 10.5701 18.0422C11.2087 18.307 11.7545 18.7551 12.1384 19.3301C12.5224 19.9051 12.7273 20.5811 12.7273 21.2725C12.7284 21.7324 12.6386 22.188 12.4633 22.6132C12.288 23.0384 12.0305 23.4247 11.7056 23.7501C11.3807 24.0755 10.9947 24.3335 10.5699 24.5094C10.1451 24.6853 9.6898 24.7755 9.23005 24.775V24.769Z" fill="#FF6F0F"/>
<path d="M11.0162 0C8.86132 0 7.35989 1.50598 7.12473 3.28388C4.25077 2.49089 2 4.67381 2 7.07367C2 8.91068 3.26352 10.3956 4.94699 10.8775C6.30551 11.2655 8.75133 10.9766 8.75133 10.9766C8.73832 10.3826 9.28552 9.73057 10.1298 9.13659C12.5306 7.44972 14.4072 6.65377 14.6964 4.35283C14.9995 1.94499 13.212 0 11.0162 0Z" fill="#00A05B"/>
</g>
<path d="M42.922 12.624V16.232H40.722V19.84H37.004V9.5H40.722V12.624H42.922ZM36.124 18.432C35.64 18.6373 34.9947 18.7987 34.188 18.916C33.3813 19.0333 32.5307 19.092 31.636 19.092H23.496V9.72H35.046V12.778H27.214V16.056H31.79C32.6553 16.056 33.4693 16.0047 34.232 15.902C35.0093 15.7847 35.64 15.6307 36.124 15.44V18.432ZM32.428 20.104C34.9947 20.104 37.048 20.4413 38.588 21.116C40.128 21.776 40.898 22.8393 40.898 24.306C40.898 25.7727 40.128 26.836 38.588 27.496C37.048 28.1707 34.9947 28.508 32.428 28.508C29.8613 28.508 27.808 28.1707 26.268 27.496C24.728 26.836 23.958 25.7727 23.958 24.306C23.958 22.8393 24.728 21.776 26.268 21.116C27.808 20.4413 29.8613 20.104 32.428 20.104ZM32.428 25.538C33.7773 25.538 34.8553 25.4427 35.662 25.252C36.4833 25.0467 36.894 24.7313 36.894 24.306C36.894 23.8953 36.4833 23.5873 35.662 23.382C34.8407 23.1767 33.7627 23.074 32.428 23.074C31.0933 23.074 30.0153 23.1767 29.194 23.382C28.3727 23.5873 27.962 23.8953 27.962 24.306C27.962 24.7313 28.3653 25.0467 29.172 25.252C29.9933 25.4427 31.0787 25.538 32.428 25.538ZM62.1041 16.628H58.3201V12.668H45.2741V9.5H62.1041V16.628ZM63.2481 20.588H44.2401V17.398H63.2481V20.588ZM49.1461 25.164H62.3681V28.288H45.3401V21.952H49.1461V25.164Z" fill="#FE6F0F"/>
<defs>
<clipPath id="clip0_62_21">
<rect width="19" height="32" fill="white"/>
</clipPath>
</defs>
</svg>
